<svg xmlns="http://www.w3.org/2000/svg" viewBox="0 0 400 400" width="400" height="400"><rect width="400" height="400" fill="#e5d3b8"/><ellipse cx="200" cy="362" rx="120" ry="11" fill="#000" opacity=".12"/><path d="M132 100 L85 290 L122 300 L132 170 Z" fill="#3d3d45" stroke="#2d2d33" stroke-width="3" stroke-linejoin="round"/><path d="M268 100 L315 290 L278 300 L268 170 Z" fill="#3d3d45" stroke="#2d2d33" stroke-width="3" stroke-linejoin="round"/><path d="M85 290 L122 300 L120 320 L79 310 Z" fill="#33333a" stroke="#2d2d33" stroke-width="2"/><path d="M315 290 L278 300 L280 320 L321 310 Z" fill="#33333a" stroke="#2d2d33" stroke-width="2"/><rect x="130" y="95" width="140" height="235" rx="10" fill="#3d3d45" stroke="#2a2a30" stroke-width="3"/><path d="M165 92 Q200 128 235 92 L235 76 Q200 104 165 76 Z" fill="#303037" stroke="#2a2a30" stroke-width="2"/><path d="M200 112 L200 312" stroke="#d9d9d9" stroke-width="3" stroke-dasharray="5 3"/><path d="M150 235 L180 235 M220 235 L250 235" stroke="#2a2a30" stroke-width="3" stroke-linecap="round"/><rect x="130" y="308" width="140" height="22" rx="6" fill="#303037" stroke="#2a2a30" stroke-width="2"/><rect x="140" y="140" width="22" height="10" rx="3" fill="#e8913a"/></svg>